<svg xmlns="http://www.w3.org/2000/svg" version="1.1" xmlns:xlink="http://www.w3.org/1999/xlink" xmlns:svgjs="http://svgjs.dev/svgjs" width="1500" height="1500" viewBox="0 0 1500 1500"><rect width="1500" height="1500" fill="#4a5d5e"/><g transform="matrix(0.6666666666666666,0,0,0.6666666666666666,249.39393939393938,438.58569500674764)"><svg viewBox="0 0 396 247" data-background-color="#4a5d5e" preserveAspectRatio="xMidYMid meet" height="935" width="1500"><g id="tight-bounds" transform="matrix(1,0,0,1,0.2400000000000091,-0.09999999999999432)"><svg viewBox="0 0 395.52 247.2" height="247.2" width="395.52"><g><svg/></g><g><svg viewBox="0 0 395.52 247.2" height="247.2" width="395.52"><g transform="matrix(1,0,0,1,103.89254953270533,47.215199999999996)"><svg viewBox="0 0 187.73490093458932 152.7696" height="152.7696" width="187.73490093458932"><g><svg viewBox="0 0 187.73490093458932 152.7696" height="152.7696" width="187.73490093458932"><g><svg viewBox="0 0 244.43135999999998 198.90644152344697" height="152.7696" width="187.73490093458932"><g><svg viewBox="0 0 244.43135999999998 198.90644152344697" height="198.90644152344697" width="244.43135999999998"><g id="textblocktransform"><svg viewBox="0 0 244.43135999999998 198.90644152344697" height="198.90644152344697" width="244.43135999999998" id="textblock"><g><svg viewBox="0 0 244.43135999999998 107.28063009469244" height="107.28063009469244" width="244.43135999999998"><g transform="matrix(1,0,0,1,0,0)"><svg width="244.43135999999998" viewBox="0.809090909090909 -28.45 90.56722487315709 39.75" height="107.28063009469244" data-palette-color="#d2dbc8"><path d="M9.75-25.05L9.6-21.65 9.65-21.6Q11.95-24 14.35-24.9 16.75-25.8 18.55-25.8L18.55-25.8Q21-25.8 22.7-24.73 24.4-23.65 25.1-21.6L25.1-21.6Q27.25-24 29.35-24.9 31.45-25.8 33.55-25.8L33.55-25.8Q36.8-25.8 38.68-23.95 40.55-22.1 40.55-18.55L40.55-18.55 40.6-2.5 44.1-1.5Q44.25-0.55 43.85 0.25L43.85 0.25Q42.5 0.15 41 0.08 39.5 0 38.1 0L38.1 0Q36.7 0 35.15 0.08 33.6 0.15 32.2 0.25L32.2 0.25Q32.05-0.7 32.3-1.5L32.3-1.5Q33.3-1.7 34.08-1.95 34.85-2.2 35.6-2.5L35.6-2.5 35.6-16.3Q35.6-19.7 34.55-20.95 33.5-22.2 31.2-22.2L31.2-22.2Q30.1-22.2 28.6-21.48 27.1-20.75 25.55-18.95L25.55-18.95 25.55-18.55 25.6-2.5 29.1-1.5Q29.25-0.55 28.85 0.25L28.85 0.25Q27.5 0.15 26 0.08 24.5 0 23.1 0L23.1 0Q21.7 0 20.15 0.08 18.6 0.15 17.2 0.25L17.2 0.25Q17.05-0.7 17.3-1.5L17.3-1.5Q18.3-1.7 19.07-1.95 19.85-2.2 20.6-2.5L20.6-2.5 20.6-16.3Q20.6-19.7 19.55-21 18.5-22.3 16.2-22.3L16.2-22.3Q15-22.3 13.38-21.58 11.75-20.85 10-19.3L10-19.3 10-2.5 13.35-1.5Q13.5-0.55 13.1 0.25L13.1 0.25Q11.75 0.15 10.33 0.08 8.9 0 7.5 0L7.5 0Q6.1 0 4.45 0.08 2.8 0.15 1.4 0.25L1.4 0.25Q1.25-0.7 1.5-1.5L1.5-1.5Q2.4-1.75 3.3-1.98 4.2-2.2 5-2.5L5-2.5 5-22 0.85-22.4Q0.7-23.4 1.1-24.15L1.1-24.15Q2.95-24.45 4.7-24.8 6.45-25.15 8.05-25.5L8.05-25.5Q8.9-25.45 9.75-25.05L9.75-25.05ZM57.35-8.35L57.35-8.35Q56.45-8.35 55.5-8.47 54.55-8.6 53.55-8.9L53.55-8.9Q53.05-8.15 52.85-7.7 52.65-7.25 52.65-6.95L52.65-6.95Q52.65-6.5 53-6.05 53.35-5.6 54.85-5.18 56.35-4.75 59.75-4.35L59.75-4.35Q63.1-3.95 65.35-3.3 67.6-2.65 68.75-1.25 69.9 0.15 69.9 2.75L69.9 2.75Q69.9 5 68.8 6.6 67.7 8.2 65.85 9.25 64 10.3 61.8 10.8 59.6 11.3 57.35 11.3L57.35 11.3Q53.55 11.3 51.17 10.4 48.8 9.5 47.67 7.98 46.55 6.45 46.55 4.7L46.55 4.7Q46.55 2.9 47.55 1.13 48.55-0.65 51.25-1.75L51.25-1.75Q49.6-3.2 49.6-5.05L49.6-5.05Q49.6-6.7 50.22-7.78 50.85-8.85 51.65-9.6L51.65-9.6Q49.65-10.6 48.3-12.33 46.95-14.05 46.95-16.65L46.95-16.65Q46.95-19.05 47.9-20.7 48.85-22.35 50.4-23.35 51.95-24.35 53.77-24.8 55.6-25.25 57.35-25.25L57.35-25.25Q58.55-25.25 59.85-25.05 61.15-24.85 62.35-24.35L62.35-24.35 69-28.45Q69.4-28.25 69.75-27.55 70.1-26.85 70.3-26.08 70.5-25.3 70.4-24.8L70.4-24.8Q69.05-24.35 67.4-23.98 65.75-23.6 64.05-23.5L64.05-23.5Q65.65-22.55 66.7-20.85 67.75-19.15 67.75-16.65L67.75-16.65Q67.75-14.45 66.77-12.88 65.8-11.3 64.2-10.3 62.6-9.3 60.8-8.83 59-8.35 57.35-8.35ZM57.35-10.25L57.35-10.25Q59.9-10.25 61.55-12.08 63.2-13.9 63.2-16.75L63.2-16.75Q63.2-19.85 61.55-21.6 59.9-23.35 57.35-23.35L57.35-23.35Q54.8-23.35 53.15-21.6 51.5-19.85 51.5-16.75L51.5-16.75Q51.5-13.9 53.15-12.08 54.8-10.25 57.35-10.25ZM58.1-0.35L58.1-0.35Q57.2-0.5 55.82-0.65 54.45-0.8 53.05-1.15L53.05-1.15Q51.85-0.15 51.22 0.98 50.6 2.1 50.6 4L50.6 4Q50.6 6.1 52.4 7.75 54.2 9.4 57.6 9.4L57.6 9.4Q60.05 9.4 61.8 8.6 63.55 7.8 64.47 6.55 65.4 5.3 65.4 4.05L65.4 4.05Q65.4 2.55 64.37 1.7 63.35 0.85 61.67 0.38 60-0.1 58.1-0.35ZM80.65-16.85L80.65-2.5 85.5-1.5Q85.65-0.55 85.25 0.25L85.25 0.25Q84.35 0.2 83.02 0.15 81.7 0.1 80.4 0.05 79.1 0 78.15 0L78.15 0Q76.75 0 75.1 0.08 73.45 0.15 72.05 0.25L72.05 0.25Q71.9-0.7 72.15-1.5L72.15-1.5Q73.1-1.75 74.02-1.95 74.95-2.15 75.65-2.5L75.65-2.5 75.65-22 71.5-22.4Q71.35-23.4 71.75-24.15L71.75-24.15Q73.55-24.4 75.37-24.75 77.2-25.1 78.75-25.5L78.75-25.5Q79.25-25.45 79.57-25.33 79.9-25.2 80.4-24.95L80.4-24.95 80.4-20.4 80.45-20.35Q82-22.65 83.92-24.25 85.85-25.85 88.05-25.85L88.05-25.85Q88.9-25.85 89.72-25.73 90.55-25.6 91.35-25.1L91.35-25.1Q91.45-23.05 91.17-21.2 90.9-19.35 90.35-17.6L90.35-17.6Q90-17.55 89.25-17.57 88.5-17.6 88.1-17.8L88.1-17.8 87.4-22.8Q85.65-22.8 83.87-21.53 82.1-20.25 80.65-16.85L80.65-16.85Z" opacity="1" transform="matrix(1,0,0,1,0,0)" fill="#d2dbc8" class="wordmark-text-0" data-fill-palette-color="primary" id="text-0"/></svg></g></svg></g><g transform="matrix(1,0,0,1,0,132.60701212492705)"><svg viewBox="0 0 244.43135999999998 66.29942939851993" height="66.29942939851993" width="244.43135999999998"><g transform="matrix(1,0,0,1,0,0)"><svg width="244.43135999999998" viewBox="-0.5 -34.15 12.4 43.949999999999996" height="66.29942939851993" data-palette-color="#d2dbc8"><path d="M8-12.5L8-12.5 8.25-2.5Q8.25 0.65 7.43 3.08 6.6 5.5 5.4 6.7L5.4 6.7Q2.95 9.25 1.1 9.6L1.1 9.6 0.25 9.8Q-0.5 9.8-0.5 9.35L-0.5 9.35-0.25 8.6Q3.4 3.55 3.4-16.2L3.4-16.2Q3.4-18 3.35-18.9L3.35-18.9Q2.3-18.9 1.25-18.75L1.25-18.75 1.2-18.75Q0.65-18.75 0.65-19.3L0.65-19.3 0.8-21.2Q0.85-21.65 1.5-21.65L1.5-21.65 3.3-21.65 3.3-25 3.4-29.75Q3.4-30.1 3.53-30.53 3.65-30.95 4.6-31.83 5.55-32.7 7.4-33.43 9.25-34.15 10.58-34.15 11.9-34.15 11.9-33.35L11.9-33.35Q11.9-33.05 11.45-32.85L11.45-32.85Q10-32.4 9.08-30.28 8.15-28.15 8.15-23.05L8.15-23.05 8.15-21.65Q10.7-21.75 11.5-21.9L11.5-21.9Q11.85-21.9 11.85-21.3 11.85-20.7 11.33-19.83 10.8-18.95 10.03-18.93 9.25-18.9 8.1-18.95L8.1-18.95Q8-15.15 8-12.5Z" opacity="1" transform="matrix(1,0,0,1,0,0)" fill="#d2dbc8" class="slogan-text-1" data-fill-palette-color="secondary" id="text-1"/></svg></g></svg></g></svg></g></svg></g></svg></g></svg></g></svg></g><g><path d="M0 123.6c0-68.262 55.338-123.6 123.6-123.6 34.781 0 66.207 14.367 88.667 37.489l-5.257 0c-21.579-20.906-50.992-33.774-83.41-33.774-66.21 0-119.885 53.674-119.885 119.885 0 66.21 53.674 119.885 119.885 119.885 32.418 0 61.832-12.868 83.41-33.774h5.257c-22.46 23.123-53.886 37.489-88.667 37.489-68.262 0-123.6-55.338-123.6-123.6z" fill="#d2dbc8" stroke="transparent" data-fill-palette-color="tertiary"/></g></svg></g><defs/></svg><rect width="395.52" height="247.2" fill="none" stroke="none" visibility="hidden"/></g></svg></g></svg>